<?xml version="1.0" encoding="utf-8"?>
<!-- Generator: Adobe Illustrator 22.0.0, SVG Export Plug-In . SVG Version: 6.00 Build 0)  -->
<svg version="1.1" id="Calque_1" xmlns="http://www.w3.org/2000/svg" xmlns:xlink="http://www.w3.org/1999/xlink" x="0px" y="0px"
	 viewBox="0 0 251.4 222.4" style="enable-background:new 0 0 251.4 222.4;" xml:space="preserve">
<style type="text/css">
	.st0{fill:#FFFFFF;}
	.st1{fill:#3F51B5;}
</style>
<title>stud-connect-logo-primary</title>
<polygon class="st0" points="147.9,4.1 228.3,51 247,130.4 198.7,193.7 104.1,218.8 32.4,179 3.6,96 52.9,15.5 "/>
<path class="st1" d="M251.4,131.6c-0.5,1.3-1.1,2.6-1.9,3.8c-15,19.9-29.9,39.9-45.1,59.6c-1.5,1.9-4.4,3.2-6.9,3.9
	c-14.5,3.9-29,7.6-43.5,11.3c-14.2,3.7-28.6,6.9-42.7,11.1c-6.8,2-12.1,1-18-2.5c-19.6-11.8-39.4-23.3-59.2-34.7
	c-3-1.7-5.2-4.4-6.3-7.6c-9.1-26.4-18.4-52.7-27.4-79.1c-0.7-2.3-0.4-4.7,0.7-6.8c15.4-25.1,31-50,46.4-75c1.9-3,4.1-4.7,7.7-5.1
	c21.7-2.4,43.3-5,64.9-7.6C128.1,2,136,0.6,144,0c2.9-0.1,5.8,0.5,8.4,1.9c25.1,13.8,50,27.8,75,41.6c3.9,1.9,6.6,5.6,7.2,9.9
	c3.9,19.6,8.3,39.2,12.5,58.7C248.7,118.5,250,124.8,251.4,131.6z M73,151.8c9.6,21.1,19,42,28.5,62.8c0.4,0,0.8-0.1,1.3-0.1
	c9.6-34.5,19.2-68.9,28.7-103.4c-0.2-0.2-0.5-0.4-0.7-0.6C111.6,124.2,92.5,137.8,73,151.8z M196.8,191.4
	c-11.6-15-22.6-29.4-34.1-44.3c-17.9,22.2-35.5,43.8-53,65.5c0.3,0.4,0.5,0.8,0.8,1.2C139,206.3,167.5,199,196.8,191.4z M91.7,62.5
	C78.8,48.1,66.5,34.3,53.8,20.1C39.2,43.6,25.1,66.3,11.1,88.9c0.3,0.4,0.6,0.8,1,1.1C38.4,80.9,64.7,71.8,91.7,62.5z M134.6,110.5
	c-0.4,0.2-0.8,0.3-1.2,0.5c-9.3,33.9-18.6,67.8-27.8,101.8c18.4-21.5,36-43.4,53.7-65.1c1.7-2.1,1.2-3.5-0.2-5.4
	c-4.8-6.1-9.5-12.3-14.2-18.4C141.5,119.5,138,115,134.6,110.5L134.6,110.5z M226.8,53.3c-0.7,0.1-1.4,0.3-2,0.6
	c-10.8,6.4-21.6,12.7-32.2,19.4c-1.3,0.8-2.3,3.4-2.2,5.1c0.7,9.2,1.7,18.4,2.6,27.6c0.4,3.7,0.8,7.4,1.2,11.4
	c0.7-0.2,1.4-0.4,2.1-0.7c12.1-9.1,24.2-18.1,36.2-27.3c1.1-0.8,1.5-3.4,1.2-4.9c-1-6-2.4-12-3.7-18C229,62.1,227.9,57.8,226.8,53.3
	L226.8,53.3z M69.8,151.3c-20.2-17.4-39.7-34.1-59.2-50.9c-0.3,0.3-0.6,0.5-0.9,0.8c8.6,24.6,17.1,49.1,26,74.5
	C47.3,167.3,58.2,159.5,69.8,151.3L69.8,151.3z M200.8,185.6c0.4,0.1,0.9,0.2,1.3,0.4c13.3-17.6,26.5-35.2,40.3-53.4
	c-16.6-3.7-31.9-7-47.9-10.5C196.6,143.7,198.7,164.7,200.8,185.6L200.8,185.6z M129,109.4c-0.2-0.5-0.3-0.9-0.5-1.4l-11.3-1.2
	c-14.9-1.5-29.7-3.1-44.6-4.4c-5-0.5-5.3,0.2-4.8,5.2c1.1,8.9,2,17.8,3,26.8c0.5,4.7,1,9.3,1.6,15C91.9,135.6,110.5,122.5,129,109.4
	L129,109.4z M149.4,8.6L148,8.9c-4.2,30.7-8.3,61.4-12.5,92.1c12.6-16.1,24.2-32.4,35.6-48.8c0.9-1.7,1-3.7,0.2-5.4
	c-4.2-7.9-8.9-15.6-13.3-23.4C155,18.4,152.2,13.5,149.4,8.6z M71.1,153.1c-11.5,8.2-22.4,15.8-33.9,24c20.3,11.9,40,23.4,59.6,34.8
	c0.2-0.2,0.5-0.4,0.7-0.6C88.8,192.1,80.1,172.9,71.1,153.1z M69,147.7c0.5-0.9,0.8-1.2,0.7-1.4c-1.4-14-2.7-27.9-4.3-41.8
	c-0.1-1.1-2.1-2.8-3.4-3c-4.4-0.8-8.9-1-13.4-1.5c-12.9-1.3-25.9-2.7-38.8-4c-0.1,0.3-0.2,0.5-0.3,0.8
	C29.4,113.7,49.2,130.7,69,147.7L69,147.7z M68.9,99.8c21,2.1,40.7,4.1,60.4,6c-11.3-13.9-22.9-27-34.7-39.9c-1.6-1.8-2.8-0.6-3.8,1
	c-2.5,3.9-5.1,7.7-7.7,11.5C78.7,85.2,74.2,91.9,68.9,99.8z M192,119.1c-1.5-14.7-2.9-28.3-4.4-42.9c-17.4,10.5-33.9,20.3-50.3,30.1
	c0.1,0.3,0.2,0.7,0.3,1C155.4,111.2,173.3,115.1,192,119.1z M10.2,93c0.7,0.5,0.9,0.8,1.2,0.8C29,95.6,46.6,97.4,64.2,99
	c1.5-0.1,2.9-0.9,3.8-2.1c4.6-6.6,9.1-13.3,13.5-19.9c2.2-3.3,4.3-6.7,6.5-10l-0.7-0.7C61.8,75.2,36.2,84,10.2,93z M118.6,33.8
	c-20.9-4.4-40.2-9.7-59.9-13.5c-0.2,0.4-0.3,0.8-0.5,1.2c11.7,13.1,23.5,26.3,35.5,39.8C101.9,52.2,109.8,43.4,118.6,33.8z
	 M192.2,122.6c-9.9,8.2-18.7,15.5-27.9,23.1c11.3,14.7,22.4,29,33.5,43.3c0.3-0.2,0.6-0.3,0.9-0.5
	C196.6,167,194.5,145.5,192.2,122.6L192.2,122.6z M130.4,102.3c0.3-0.2,0.7-0.4,1-0.5c-3.7-21.7-7.5-43.4-11.3-65.5
	c-0.9,0.5-1.7,1.1-2.5,1.8c-6.8,7.4-13.4,15-20.3,22.4c-2.4,2.6-0.8,4.1,0.8,5.8c7.6,8.5,15.3,17,22.9,25.5
	C124,95.3,127.2,98.8,130.4,102.3L130.4,102.3z M145.8,8.5c-0.3-0.1-0.7-0.3-1-0.4c-7.5,8.3-15,16.5-22.3,24.9
	c-0.7,0.8-0.7,2.6-0.5,3.8c3,17.3,6.1,34.6,9.2,51.9c0.5,2.7,1,5.5,1.5,8.2h1C137.8,67.3,141.8,37.9,145.8,8.5L145.8,8.5z M235,90.4
	c-13.4,10.1-25.9,19.4-38.4,28.8c0.1,0.4,0.3,0.8,0.4,1.1c15.1,3.3,30.3,6.6,46.4,10.1C240.5,116.6,237.9,104,235,90.4L235,90.4z
	 M62.1,17.4v0.9c0.4,0.2,0.9,0.4,1.4,0.6c18,4.2,36.1,8.4,54.1,12.4c1.7,0.2,3.4-0.4,4.6-1.6c2.9-2.9,5.7-5.9,8.3-9
	c3.5-3.9,6.9-7.8,10.4-11.7c-0.2-0.4-0.4-0.7-0.6-1.1C114.2,11.1,88.1,14.3,62.1,17.4L62.1,17.4z M155.2,11.9
	c-0.2,0.2-0.4,0.4-0.6,0.7c0.5,1.2,1,2.4,1.6,3.5c5.6,9.7,11.3,19.2,16.8,29c1,2.3,3.4,3.6,5.9,3.3c12.4-0.2,24.8-0.1,37.2-0.2
	c1.1-0.1,2.1-0.3,3.2-0.6C197.3,35.4,176.3,23.6,155.2,11.9L155.2,11.9z M137.8,109.3l-0.6,0.9c0.5,0.9,1,1.8,1.6,2.7
	c6.4,8.1,12.6,16.3,19.2,24.3c5.2,6.3,5.4,6.3,11.7,1.1c6.7-5.5,13.3-11.1,20.8-17.3C172.2,117.1,155,113.2,137.8,109.3z
	 M174.2,51.7c-12.1,17.2-23.8,33.7-36.2,51.2c1.7-0.7,2.4-0.8,2.9-1.1c8.4-5.1,16.8-10.1,25.2-15.2c6.1-3.7,12.2-7.3,18.1-11.1
	c1-0.6,2.1-2.7,1.8-3.3C182.3,65.6,178.4,59.1,174.2,51.7L174.2,51.7z M176.4,51c4.4,7.7,8.3,14.5,12.5,21.8
	c11.9-7.2,23.4-14.1,34.9-21c-0.1-0.3-0.3-0.5-0.4-0.8L176.4,51z"/>
</svg>
